<svg xmlns="http://www.w3.org/2000/svg" viewBox="0 0 512 512"><path d="M33.887 36.189h444.226c10.398 0 18.828 8.43 18.828 18.828v198.751c0 10.398-8.43 18.828-18.828 18.828h-65.911l-49.117 38.298-49.117-38.298H33.887c-10.398 0-18.828-8.43-18.828-18.828V55.017c0-10.398 8.43-18.828 18.828-18.828z" fill="#cee8fa"/><g fill="#2d527c"><path d="M363.085 325.953a15.031 15.031 0 01-9.258-3.183l-45.035-35.113H33.887C15.202 287.655 0 272.453 0 253.768V55.017C0 36.332 15.202 21.13 33.887 21.13h444.226C496.798 21.13 512 36.332 512 55.017v198.749c0 18.685-15.202 33.888-33.887 33.888h-60.734l-45.035 35.113a15.023 15.023 0 01-9.259 3.186zM33.887 51.248a3.774 3.774 0 00-3.769 3.769v198.749a3.774 3.774 0 003.769 3.771h280.081a15.05 15.05 0 019.258 3.183l39.859 31.077 39.859-31.077a15.058 15.058 0 019.258-3.183h65.911a3.774 3.774 0 003.769-3.771V55.017a3.774 3.774 0 00-3.769-3.769H33.887zM478.113 490.869H33.887C15.202 490.869 0 475.668 0 456.983v-57.386c0-18.685 15.202-33.887 33.887-33.887h60.734l45.035-35.113a15.058 15.058 0 0118.518 0l45.035 35.113h106.333c8.315 0 15.059 6.743 15.059 15.059 0 8.315-6.743 15.059-15.059 15.059H198.031a15.05 15.05 0 01-9.258-3.183l-39.859-31.077-39.858 31.075a15.058 15.058 0 01-9.258 3.183H33.887a3.774 3.774 0 00-3.769 3.769v57.386a3.774 3.774 0 003.769 3.769h444.226a3.774 3.774 0 003.769-3.769v-57.386a3.774 3.774 0 00-3.769-3.769h-61.932c-8.315 0-15.059-6.743-15.059-15.059s6.743-15.059 15.059-15.059h61.932c18.685 0 33.887 15.202 33.887 33.887v57.386c0 18.687-15.202 33.888-33.887 33.888z"/><path d="M327.832 111.014H71.721c-8.315 0-15.059-6.743-15.059-15.059s6.743-15.059 15.059-15.059h256.111c8.315 0 15.059 6.743 15.059 15.059 0 8.315-6.742 15.059-15.059 15.059zM199.776 226.129H71.721c-8.315 0-15.059-6.743-15.059-15.059s6.743-15.059 15.059-15.059h128.056c8.315 0 15.059 6.743 15.059 15.059s-6.743 15.059-15.06 15.059zM412.607 168.57H71.721c-8.315 0-15.059-6.743-15.059-15.059s6.743-15.059 15.059-15.059h340.887c8.315 0 15.059 6.743 15.059 15.059s-6.743 15.059-15.06 15.059z"/></g></svg>