<svg xmlns="http://www.w3.org/2000/svg" xmlns:xlink="http://www.w3.org/1999/xlink" width="2050" height="780" viewBox="0 0 1537.5 585" version="1.2"><defs><symbol overflow="visible" id="a"><path d="M8.281-8.844c-2.386-1.5-3.578-3.879-3.578-7.14 0-3.258 2.379-8.211 7.14-14.86 1.384-2.133 3.614-3.203 6.688-3.203 3.07 0 7.239 1.54 12.5 4.61 5.27 3.074 10.035 4.609 14.297 4.609 7.656 0 11.484-1.504 11.484-4.516 0-2.383-4.203-4.14-12.609-5.265-7.898-1.133-15.734-4.082-23.516-8.844-3.636-2.258-6.648-5.8-9.03-10.625-2.376-4.832-3.563-10.57-3.563-17.219 0-19.812 13.601-29.719 40.812-29.719 8.907 0 18.063 2.133 27.469 6.391 4.383 2.012 6.578 4.523 6.578 7.531 0 3.012-1.383 6.715-4.14 11.11-2.762 4.386-5.579 6.578-8.454 6.578-1.511 0-4.304-.942-8.375-2.828-4.074-1.883-8.496-2.829-13.265-2.829-7.399 0-11.094 1.383-11.094 4.141 0 3.762 4.258 6.211 12.781 7.344 8.282.875 16.305 3.258 24.078 7.14 3.645 1.762 6.688 4.81 9.125 9.141 2.446 4.324 3.672 9.746 3.672 16.266 0 6.523-1.226 12.07-3.672 16.64-2.437 4.575-5.855 7.993-10.25 10.25-8.023 3.887-18.086 5.829-30.187 5.829-12.106 0-23.734-3.508-34.89-10.532zm0 0"/></symbol><symbol overflow="visible" id="b"><path d="M65.078-65.844l-12.219-.75v25.969c0 3.387.532 5.836 1.594 7.344 1.07 1.5 3.078 2.25 6.016 2.25 2.945 0 5.203.093 6.765.281 1.57.188 3.239.781 5 1.781 2.883 1.637 4.329 5.84 4.329 12.61 0 7.898-1.758 12.726-5.266 14.484-1.887.875-3.555 1.406-5 1.594C64.859-.094 62.757 0 60 0 46.957 0 37.05-2.945 30.281-8.844c-6.773-5.894-10.156-15.863-10.156-29.906v-27.844c-2.387.375-4.96.563-7.719.563-2.75 0-5.039-1.063-6.86-3.188-1.812-2.133-2.718-5.77-2.718-10.906 0-5.145.313-8.879.938-11.203.625-2.32 1.5-3.984 2.625-4.984 2.007-1.626 4.52-2.438 7.53-2.438l6.204.75v-19.375c0-2.883.094-5.016.281-6.39.188-1.383.785-2.895 1.797-4.532C23.828-131.43 28.656-133 36.688-133c8.519 0 13.597 2.324 15.234 6.969.625 2 .937 5.199.937 9.594V-98c5.52-.5 9.688-.75 12.5-.75 2.82 0 4.954.094 6.391.281 1.445.188 3.113.781 5 1.781 3.258 1.626 4.89 6.454 4.89 14.485 0 7.898-1.695 12.726-5.078 14.484-1.886.875-3.554 1.406-5 1.594-1.437.188-3.601.281-6.484.281zm0 0"/></symbol><symbol overflow="visible" id="c"><path d="M74.86-98c2.382.75 4.359 2.04 5.921 3.86 1.57 1.812 2.36 4.73 2.36 8.75 0 4.011-1.196 8.402-3.579 13.171-2.374 4.762-5.824 7.14-10.343 7.14-2.25 0-4.414-.5-6.485-1.5-2.074-1.007-4.804-1.515-8.187-1.515-3.387 0-6.555 1.196-9.5 3.578-2.95 2.375-4.422 5.258-4.422 8.641v39.516c0 2.886-.094 5.047-.281 6.484-.188 1.438-.782 3.102-1.782 4.984C36.676-1.629 31.785 0 23.892 0c-6.024 0-10.352-1.066-12.985-3.203-2-1.75-3.125-4.442-3.375-8.078v-71.485c0-2.882.094-5.046.282-6.484.187-1.445.718-3.05 1.593-4.813 1.75-3.382 6.64-5.078 14.672-5.078 7.52 0 12.223 1.446 14.11 4.329 1.374 2.011 2.062 4.085 2.062 6.218.633-.883 1.547-1.953 2.734-3.203 1.188-1.25 3.723-2.941 7.61-5.078 3.894-2.133 7.316-3.203 10.265-3.203 2.946 0 5.422.156 7.422.469 2.008.312 4.203.851 6.578 1.609zm0 0"/></symbol><symbol overflow="visible" id="d"><path d="M7.531-82.578c0-2.883.094-5.047.282-6.484.187-1.446.718-3.114 1.593-5 1.75-3.258 6.64-4.891 14.672-4.891 6.02 0 10.285 1.07 12.797 3.203 2.125 1.762 3.25 4.46 3.375 8.094.125 1.25.188 3.07.188 5.453v65.844c0 2.886-.094 5.047-.282 6.484-.187 1.438-.781 3.102-1.781 4.984C36.738-1.629 31.91 0 23.891 0 15.984 0 11.156-1.691 9.406-5.078 8.531-6.961 8-8.594 7.812-9.968c-.187-1.376-.28-3.567-.28-6.579zm30.938-34.89c-.938 1.812-2.602 3.1-4.985 3.859-2.386.75-5.554 1.125-9.5 1.125-3.949 0-7.117-.375-9.5-1.125-2.386-.758-4.046-2.079-4.984-3.954-.938-1.882-1.5-3.546-1.688-4.984-.187-1.445-.28-3.613-.28-6.5 0-2.883.093-5.047.28-6.484.188-1.446.72-3.047 1.594-4.797 1.75-3.383 6.64-5.078 14.672-5.078 7.895 0 12.66 1.695 14.297 5.078 1 1.875 1.594 3.539 1.781 4.984.188 1.438.282 3.602.282 6.485 0 2.886-.094 5.054-.282 6.5-.187 1.437-.75 3.07-1.687 4.89zm0 0"/></symbol><symbol overflow="visible" id="e"><path d="M62.64-99.14c12.54 0 22.977 4.796 31.313 14.39 8.344 9.594 12.516 21.293 12.516 35.094v33.11c0 2.874-.094 5.038-.281 6.483-.188 1.438-.72 3.04-1.594 4.797-1.762 3.387-6.653 5.079-14.672 5.079-8.906 0-14.055-2.317-15.438-6.954-.75-2.132-1.125-5.332-1.125-9.593v-33.11c0-5.144-1.476-9.16-4.421-12.047-2.95-2.882-6.903-4.328-11.86-4.328-4.95 0-8.96 1.508-12.031 4.516-3.074 3.012-4.61 6.965-4.61 11.86v33.296c0 2.875-.093 5.04-.28 6.485-.188 1.437-.782 3.039-1.782 4.796C36.738-1.879 31.91-.187 23.891-.187c-7.907 0-12.735-1.692-14.485-5.079C8.531-7.148 8-8.812 7.812-10.25c-.187-1.445-.28-3.61-.28-6.484v-66.594c0-2.758.093-4.86.28-6.297.188-1.445.782-3.05 1.782-4.813 1.758-3.132 6.586-4.703 14.484-4.703 7.645 0 12.348 1.446 14.11 4.329 1.25 2.136 1.874 4.71 1.874 7.718.5-.875 1.63-2.125 3.391-3.75 1.758-1.633 3.453-2.957 5.078-3.969 4.258-2.882 8.961-4.328 14.11-4.328zm0 0"/></symbol><symbol overflow="visible" id="f"><path d="M70.36-12.422C65.585-6.148 58-3.016 47.593-3.016c-10.407 0-20.157-4.796-29.25-14.39C9.25-27 4.704-38.191 4.704-50.984c0-12.79 4.577-24.016 13.733-33.672 9.157-9.656 19.188-14.485 30.094-14.485 4.258 0 8.145.79 11.657 2.36 3.519 1.562 5.937 3.008 7.25 4.328 1.312 1.312 2.347 2.539 3.109 3.672.375-3.52 1.656-6.188 3.844-8 2.195-1.82 5.738-2.735 10.625-2.735 4.894 0 8.472.383 10.734 1.141 2.258.75 3.86 2.04 4.797 3.86.937 1.812 1.5 3.413 1.687 4.796.188 1.375.282 3.508.282 6.39v77.876c0 14.414-5.016 26.047-15.047 34.89-10.031 8.844-21.32 13.266-33.86 13.266-9.53 0-18.625-2.324-27.28-6.969-8.65-4.636-12.97-8.836-12.97-12.593 0-4.899 1.88-9.227 5.641-12.985 2.383-2.636 4.234-4.453 5.547-5.453 1.312-1 2.848-1.5 4.61-1.5 1.757 0 3.577.75 5.452 2.25 6.02 4.645 12.54 6.969 19.563 6.969 4.77 0 8.66-1.887 11.672-5.656 3.008-3.762 4.515-8.27 4.515-13.532zM36.874-50.875c0 4.074 1.598 7.742 4.797 11 3.195 3.262 7.082 4.89 11.656 4.89 4.57 0 8.363-1.66 11.375-4.984 3.008-3.32 4.516-6.957 4.516-10.906 0-3.957-1.446-7.66-4.328-11.11-2.875-3.445-6.762-5.171-11.657-5.171-4.886 0-8.836 1.695-11.843 5.078-3.012 3.387-4.516 7.121-4.516 11.203zm0 0"/></symbol><symbol overflow="visible" id="g"><path d="M51.547-.375c-12.668 0-23.172-4.797-31.516-14.39-8.336-9.594-12.5-21.286-12.5-35.079v-32.922c0-3.007.094-5.203.282-6.578.187-1.383.718-3.02 1.593-4.906 1.75-3.383 6.64-5.078 14.672-5.078 8.781 0 13.922 2.387 15.422 7.156.75 2.012 1.125 5.211 1.125 9.594v32.922c0 5.136 1.473 9.148 4.422 12.031 2.945 2.887 6.894 4.328 11.844 4.328 4.957 0 8.972-1.504 12.047-4.516 3.07-3.007 4.609-6.957 4.609-11.843v-33.297c0-2.883.094-5.047.281-6.484.188-1.446.785-3.114 1.797-5 1.625-3.258 6.453-4.891 14.484-4.891 7.895 0 12.723 1.695 14.485 5.078.875 1.887 1.406 3.555 1.594 5 .187 1.438.28 3.602.28 6.484v66.594c0 2.762-.093 4.86-.28 6.297-.188 1.438-.782 3.04-1.782 4.797-1.886 3.262-6.715 4.89-14.484 4.89-7.656 0-12.36-1.503-14.11-4.515-1.261-2.133-1.89-4.707-1.89-7.719-.5.887-1.633 2.149-3.39 3.781-1.75 1.625-3.438 3-5.063 4.125-4.274 2.762-8.914 4.141-13.922 4.141zm0 0"/></symbol><symbol overflow="visible" id="h"><path d="M7.531-129.234c0-2.883.094-5.047.282-6.485.187-1.445.718-3.11 1.593-4.984 1.75-3.383 6.64-5.078 14.672-5.078 7.645 0 12.41 1.695 14.297 5.078 1 1.875 1.594 3.57 1.781 5.078.188 1.5.282 3.695.282 6.578v87.094c0 4.523.374 7.375 1.124 8.562.758 1.188 2.422 1.782 4.985 1.782 2.57 0 4.297.101 5.172.297.883.187 1.953.718 3.203 1.593 2.508 1.625 3.766 6.078 3.766 13.36 0 7.898-1.258 12.726-3.766 14.484C51.66.375 43.89.75 31.609-.75c-9.656-1.258-15.93-4.457-18.812-9.594C9.285-16.488 7.53-26.27 7.53-39.687zm0 0"/></symbol><symbol overflow="visible" id="j"><path d="M35.047-31.61c2.125 1.274 3.187 2.622 3.187 4.047 0 .825-.406 1.95-1.218 3.375L24.296-2.39c-.405.7-1.062 1.325-1.968 1.875-.898.551-1.789.829-2.672.829a5.293 5.293 0 01-2.515-.641c-.793-.438-1.352-.879-1.672-1.328l-.547-.672L2.14-24.188C1.328-25.53.92-26.633.92-27.5c0-1.469 1.063-2.836 3.188-4.11 1.551-.894 2.774-1.343 3.672-1.343.907 0 1.614.277 2.125.828.508.555 1.051 1.383 1.625 2.484l8.047 15.47 8.047-15.47c.445-.78.781-1.343 1-1.687.227-.352.586-.703 1.078-1.047.488-.344 1.14-.516 1.953-.516.82 0 1.953.43 3.39 1.282zm0 0"/></symbol><symbol overflow="visible" id="k"><path d="M2.453-26.938c0-.945.031-1.656.094-2.125.062-.468.234-1.007.515-1.625.57-1.062 2.172-1.593 4.797-1.593 1.957 0 3.348.351 4.172 1.047.696.574 1.067 1.453 1.11 2.64.039.407.062.996.062 1.766v21.484c0 .95-.031 1.657-.094 2.125-.062.469-.261 1.012-.593 1.625C11.984-.53 10.41 0 7.796 0 5.212 0 3.634-.55 3.063-1.656c-.28-.614-.453-1.145-.515-1.594-.063-.445-.094-1.164-.094-2.156zm10.094-11.39c-.305.594-.844 1.016-1.625 1.266-.774.242-1.805.359-3.094.359-1.293 0-2.328-.117-3.11-.36-.773-.25-1.312-.68-1.624-1.296-.305-.614-.485-1.157-.547-1.625-.063-.47-.094-1.172-.094-2.11 0-.945.031-1.656.094-2.125.062-.468.234-.988.515-1.562.57-1.102 2.172-1.657 4.797-1.657 2.57 0 4.125.555 4.657 1.657.332.617.53 1.156.593 1.625.063.468.094 1.18.094 2.125 0 .937-.031 1.64-.094 2.11-.062.468-.25 1-.562 1.593zm0 0"/></symbol><symbol overflow="visible" id="l"><path d="M24.422-31.969a4.096 4.096 0 011.937 1.25c.508.594.766 1.547.766 2.86 0 1.304-.39 2.734-1.172 4.297-.773 1.554-1.89 2.328-3.36 2.328-.741 0-1.448-.16-2.124-.485-.68-.332-1.57-.5-2.672-.5-1.106 0-2.14.39-3.11 1.172-.96.774-1.437 1.711-1.437 2.813v12.89c0 .95-.031 1.657-.094 2.125-.054.469-.246 1.012-.578 1.625C11.961-.53 10.368 0 7.797 0 5.828 0 4.414-.348 3.563-1.047c-.657-.57-1.028-1.453-1.11-2.64V-27c0-.945.031-1.656.094-2.125.062-.469.234-.988.515-1.563.57-1.101 2.172-1.656 4.797-1.656 2.446 0 3.977.469 4.594 1.407.457.656.688 1.335.688 2.03.195-.288.488-.64.875-1.046.394-.406 1.222-.957 2.484-1.656 1.27-.696 2.383-1.047 3.344-1.047.968 0 1.781.054 2.437.156.657.105 1.367.281 2.14.531zm0 0"/></symbol><symbol overflow="visible" id="m"><path d="M1.531-16.14c0-4.907 1.719-8.954 5.157-12.141 3.437-3.196 7.363-4.797 11.78-4.797 4.427 0 8.337 1.59 11.735 4.766 3.395 3.167 5.094 7.203 5.094 12.109 0 3.398-.883 6.418-2.64 9.062-1.762 2.637-3.903 4.579-6.423 5.829C23.723-.07 21.114.546 18.406.546c-2.699 0-5.32-.66-7.86-1.985-2.53-1.332-4.667-3.296-6.405-5.89-1.743-2.602-2.61-5.54-2.61-8.813zm12.828 4.39c1.313 1 2.641 1.5 3.985 1.5 1.351 0 2.703-.508 4.047-1.531 1.351-1.02 2.03-2.531 2.03-4.531 0-2.008-.636-3.504-1.905-4.485-1.262-.988-2.633-1.484-4.11-1.484-1.468 0-2.84.515-4.11 1.547-1.273 1.023-1.905 2.527-1.905 4.515 0 1.98.656 3.469 1.968 4.469zm0 0"/></symbol><symbol overflow="visible" id="n"><path d="M20.438-32.344c4.093 0 7.5 1.57 10.218 4.703 2.719 3.125 4.078 6.938 4.078 11.438v10.797c0 .949-.03 1.656-.093 2.125-.063.469-.235.992-.516 1.562-.574 1.106-2.168 1.657-4.781 1.657-2.907 0-4.59-.754-5.047-2.266-.242-.695-.36-1.742-.36-3.14v-10.798c0-1.675-.484-2.984-1.453-3.922-.96-.945-2.246-1.421-3.859-1.421-1.617 0-2.922.496-3.922 1.484-1 .98-1.5 2.266-1.5 3.86v10.859c0 .949-.031 1.656-.094 2.125-.062.469-.261.992-.593 1.562-.532 1.106-2.106 1.657-4.72 1.657-2.585 0-4.163-.551-4.734-1.657-.28-.613-.453-1.156-.515-1.625-.063-.469-.094-1.176-.094-2.125v-21.718c0-.907.031-1.594.094-2.063.062-.469.254-.988.578-1.563.57-1.019 2.148-1.53 4.734-1.53 2.489 0 4.02.468 4.594 1.406.414.699.625 1.539.625 2.515.156-.281.52-.687 1.094-1.219.57-.53 1.125-.96 1.656-1.297a8.084 8.084 0 014.61-1.406zm0 0"/></symbol><symbol overflow="visible" id="o"><path d="M2.703-2.89C1.922-3.38 1.531-4.157 1.531-5.22c0-1.062.774-2.676 2.328-4.843.457-.696 1.188-1.047 2.188-1.047 1 0 2.36.507 4.078 1.515 1.719 1 3.273 1.5 4.672 1.5 2.488 0 3.734-.492 3.734-1.484 0-.77-1.37-1.344-4.11-1.719-2.573-.363-5.132-1.32-7.671-2.875-1.188-.738-2.172-1.894-2.953-3.469-.774-1.582-1.156-3.457-1.156-5.625 0-6.457 4.437-9.687 13.312-9.687 2.906 0 5.895.695 8.969 2.078 1.426.656 2.14 1.48 2.14 2.469 0 .98-.453 2.187-1.359 3.625-.898 1.43-1.812 2.14-2.75 2.14-.492 0-1.402-.304-2.734-.922-1.324-.613-2.766-.921-4.328-.921-2.407 0-3.61.449-3.61 1.343 0 1.23 1.39 2.028 4.172 2.391 2.695.293 5.313 1.074 7.844 2.344 1.187.574 2.18 1.57 2.984 2.984.801 1.406 1.203 3.172 1.203 5.297 0 2.125-.402 3.938-1.203 5.438-.804 1.492-1.918 2.605-3.343 3.343-2.618 1.262-5.903 1.89-9.86 1.89-3.95 0-7.742-1.144-11.375-3.437zm0 0"/></symbol><clipPath id="i"><path d="M16.934 114h352.011v325H16.934zm0 0"/></clipPath></defs><use xlink:href="#a" x="384.582" y="360.992" fill="#2d527c"/><use xlink:href="#b" x="479.39" y="360.992" fill="#2d527c"/><use xlink:href="#c" x="566.674" y="360.992" fill="#2d527c"/><use xlink:href="#d" x="655.463" y="360.992" fill="#2d527c"/><use xlink:href="#e" x="706.253" y="360.992" fill="#2d527c"/><use xlink:href="#f" x="823.07" y="360.992" fill="#2d527c"/><use xlink:href="#g" x="935.937" y="360.992" fill="#2d527c"/><use xlink:href="#b" x="1052.754" y="360.992" fill="#2d527c"/><use xlink:href="#d" x="1140.038" y="360.992" fill="#2d527c"/><use xlink:href="#h" x="1190.828" y="360.992" fill="#2d527c"/><use xlink:href="#a" x="1255.163" y="360.992" fill="#2d527c"/><path d="M40.246 125.234H345.88c7.152 0 12.953 5.801 12.953 12.954V274.93c0 7.152-5.8 12.953-12.953 12.953H300.53l-33.793 26.351-33.793-26.351H40.246c-7.152 0-12.953-5.801-12.953-12.953V138.187c0-7.152 5.8-12.953 12.953-12.953zm0 0" fill="#cee8fa"/><g clip-path="url(#i)"><path d="M266.738 324.594c-1.156 0-2.277-.188-3.367-.563a10.239 10.239 0 01-3.004-1.629l-30.984-24.156H40.246c-12.855 0-23.312-10.46-23.312-23.316V138.187c0-12.855 10.457-23.312 23.312-23.312H345.88c12.855 0 23.312 10.457 23.312 23.313V274.93c0 12.855-10.457 23.312-23.312 23.312h-41.785l-30.985 24.16c-.91.711-1.91 1.254-3.004 1.63a10.29 10.29 0 01-3.367.562zm-226.492-189c-.344 0-.672.066-.988.199a2.602 2.602 0 00-1.406 1.402c-.13.32-.196.649-.196.993V274.93c0 .343.067.672.196.992a2.602 2.602 0 002.394 1.601h192.7a10.37 10.37 0 016.371 2.188l27.421 21.383 27.422-21.383a10.32 10.32 0 013.004-1.625c1.09-.375 2.211-.563 3.367-.563h45.348a2.602 2.602 0 002.594-2.594V138.188a2.602 2.602 0 00-2.594-2.594zm305.633 302.46H40.246c-12.855 0-23.312-10.456-23.312-23.312v-39.48c0-12.856 10.457-23.317 23.312-23.317h41.785l30.985-24.156a10.514 10.514 0 013.004-1.629 10.54 10.54 0 013.367-.562 9.97 9.97 0 011.707.144c.566.094 1.12.235 1.66.418a10.414 10.414 0 013.004 1.63l30.984 24.155h73.156c5.723 0 10.364 4.64 10.364 10.364 0 5.718-4.64 10.359-10.364 10.359H153.18a10.29 10.29 0 01-3.368-.563 10.239 10.239 0 01-3.003-1.628l-27.422-21.38-27.422 21.38c-.91.71-1.91 1.253-3.004 1.628-1.09.375-2.211.563-3.367.563H40.246a2.592 2.592 0 00-2.394 1.602 2.592 2.592 0 00-.196.988v39.484c0 .344.067.672.196.992a2.602 2.602 0 002.394 1.602H345.88a2.602 2.602 0 002.594-2.594v-39.484a2.618 2.618 0 00-.762-1.832 2.602 2.602 0 00-.84-.563 2.626 2.626 0 00-.992-.195h-42.61c-5.722 0-10.363-4.64-10.363-10.363 0-5.72 4.64-10.36 10.364-10.36h42.609c12.855 0 23.312 10.457 23.312 23.313v39.484c0 12.856-10.457 23.313-23.312 23.313zm0 0" fill="#2d527c"/></g><path d="M242.484 176.715H66.277c-5.718 0-10.359-4.64-10.359-10.36 0-5.722 4.637-10.363 10.36-10.363h176.206c5.72 0 10.36 4.64 10.36 10.363 0 5.72-4.637 10.36-10.36 10.36zm-88.105 79.2H66.277c-5.718 0-10.359-4.642-10.359-10.36 0-5.723 4.637-10.364 10.36-10.364h88.105c5.719 0 10.36 4.641 10.36 10.364 0 5.718-4.641 10.36-10.364 10.36zm146.43-39.602H66.277c-5.718 0-10.359-4.637-10.359-10.36s4.637-10.36 10.36-10.36h234.53c5.723 0 10.364 4.637 10.364 10.36s-4.64 10.36-10.363 10.36zm0 0" fill="#2d527c"/><use xlink:href="#j" x="87.681" y="511.424" fill="#2d527c"/><use xlink:href="#k" x="127.763" y="511.424" fill="#2d527c"/><use xlink:href="#l" x="144.337" y="511.424" fill="#2d527c"/><use xlink:href="#k" x="173.309" y="511.424" fill="#2d527c"/><use xlink:href="#m" x="189.882" y="511.424" fill="#2d527c"/><use xlink:href="#n" x="227.633" y="511.424" fill="#2d527c"/><use xlink:href="#o" x="265.751" y="511.424" fill="#2d527c"/></svg>